<svg width="230" height="138" viewBox="0 0 230 138" fill="none" xmlns="http://www.w3.org/2000/svg">
<path d="M57.5 57.5V80.5H172.5V57.5C172.5 44.814 182.814 34.5 195.5 34.5H207C207 15.4531 191.547 0 172.5 0H57.5C38.4531 0 23 15.4531 23 34.5H34.5C47.1859 34.5 57.5 44.814 57.5 57.5ZM207 46H195.5C189.139 46 184 51.139 184 57.5V92H46V57.5C46 51.139 40.8609 46 34.5 46H23C10.3141 46 0 56.314 0 69C0 77.4812 4.67188 84.8125 11.5 88.8015V132.25C11.5 135.412 14.0875 138 17.25 138H40.25C43.4125 138 46 135.412 46 132.25V126.5H184V132.25C184 135.412 186.587 138 189.75 138H212.75C215.913 138 218.5 135.412 218.5 132.25V88.8015C225.328 84.8125 230 77.4812 230 69C230 56.314 219.686 46 207 46Z" fill="#FF7D04"/>
</svg>
